<svg version="1.1" id="logo_x5F_insights" xmlns="http://www.w3.org/2000/svg" x="0px" y="0px" width="200px"
     height="53.2px" viewBox="92 -18.2 200 53.2" enable-background="new 92 -18.2 200 53.2"
     xml:space="preserve">
<path fill="#0082b7" d="M156.1-8.3c0,1.2-0.9,2.2-2.4,2.2c-1.3,0-2.2-1-2.2-2.2c0-1.3,1-2.3,2.3-2.3C155.3-10.6,156.1-9.6,156.1-8.3
	z M152,17.4h3.7V-2.7H152V17.4z M172-3.1c-3.4,0-5.7,1.9-6.7,3.8h-0.1L165-2.7h-3.3c0.1,1.7,0.2,3.4,0.2,5.5v14.7h3.7V5.3
	c0-0.6,0.1-1.2,0.3-1.7c0.6-2,2.5-3.7,5-3.7c3.5,0,4.7,2.7,4.7,5.9v11.6h3.7v-12C179.2-1.5,174.8-3.1,172-3.1z M191.7,5.8
	c-2.6-1-3.9-1.7-3.9-3.4c0-1.5,1.2-2.7,3.4-2.7c1.9,0,3.4,0.7,4.2,1.2l0.9-2.7c-1.1-0.7-2.9-1.2-5-1.2c-4.4,0-7,2.7-7,5.9
	c0,2.4,1.7,4.4,5.4,5.7c2.7,1,3.8,2,3.8,3.7s-1.3,3-3.9,3c-1.8,0-3.8-0.7-4.9-1.5l-0.9,2.8c1.4,0.8,3.5,1.4,5.7,1.4
	c4.8,0,7.6-2.5,7.6-6.1C197.1,8.8,195.3,7.1,191.7,5.8z M203.7-10.6c-1.3,0-2.3,1-2.3,2.3c0,1.2,0.9,2.2,2.2,2.2
	c1.5,0,2.4-1,2.4-2.2C205.9-9.6,205.1-10.6,203.7-10.6z M201.8,17.4h3.7V-2.7h-3.7V17.4z M225.9-2.7h3.2c-0.1,1.5-0.2,3.1-0.2,5.5
	v11.7c0,4.6-0.9,7.4-2.9,9.2s-4.8,2.4-7.4,2.4c-2.4,0-5.1-0.6-6.8-1.7l0.9-2.8c1.3,0.8,3.4,1.6,6,1.6c3.8,0,6.6-2,6.6-7V14h-0.1
	c-1.1,1.9-3.3,3.4-6.5,3.4c-5,0-8.7-4.2-8.7-9.8c0-6.8,4.5-10.7,9.2-10.7c3.5,0,5.5,1.8,6.3,3.5h0.1L225.9-2.7z M225.3,5.3
	c0-0.6,0-1.2-0.2-1.7c-0.7-2.1-2.5-3.9-5.2-3.9c-3.5,0-6.1,3-6.1,7.6c0,4,2,7.2,6,7.2c2.3,0,4.3-1.4,5.1-3.7c0.2-0.6,0.3-1.3,0.3-2
	L225.3,5.3L225.3,5.3z M245.3-3.1c-1.4,0-2.7,0.4-3.8,1s-2.1,1.5-2.6,2.6h-0.1v-12.6h-3.7v29.5h3.7V5.3c0-0.7,0-1.2,0.3-1.7
	c0.7-2,2.6-3.7,5-3.7c3.5,0,4.7,2.7,4.7,6v11.6h3.7v-12C252.4-1.5,248.1-3.1,245.3-3.1z M262.7-7.5l-3.6,1.1v3.7H256v2.8h3.2v11
	c0,2.4,0.4,4.2,1.4,5.2c0.9,1,2.3,1.6,4,1.6c1.4,0,2.6-0.2,3.3-0.5l-0.2-2.7c-0.5,0.2-1.1,0.2-2.1,0.2c-2.1,0-2.8-1.4-2.8-3.9V0.1
	h5.3v-2.8h-5.3L262.7-7.5L262.7-7.5z M278.8,5.8c-2.6-1-3.9-1.7-3.9-3.4c0-1.5,1.2-2.7,3.4-2.7c1.9,0,3.4,0.7,4.2,1.2l0.9-2.7
	c-1.1-0.7-2.9-1.2-5-1.2c-4.4,0-7,2.7-7,5.9c0,2.4,1.7,4.4,5.4,5.7c2.7,1,3.8,2,3.8,3.7s-1.3,3-3.9,3c-1.8,0-3.8-0.7-4.9-1.5
	l-0.9,2.8c1.4,0.8,3.5,1.4,5.7,1.4c4.8,0,7.6-2.5,7.6-6.1C284.1,8.8,282.3,7.1,278.8,5.8z M292-3.8c0,1.5-1.2,2.7-2.8,2.7
	c-1.5,0-2.8-1.2-2.8-2.7s1.2-2.7,2.8-2.7l0,0C290.8-6.4,292-5.2,292-3.8z M291.3-3.8c0-1.2-0.9-2.1-2.1-2.1l0,0
	c-1.2,0-2.1,1-2.1,2.1c0,1.2,0.9,2.1,2.1,2.1C290.4-1.6,291.3-2.6,291.3-3.8z M290.4-3c0.1,0.4,0.1,0.6,0.2,0.7h-0.7
	c-0.1-0.1-0.1-0.3-0.2-0.6c0-0.3-0.2-0.4-0.6-0.4h-0.3v1.1h-0.6v-2.7c0.2,0,0.6-0.1,1-0.1c0.5,0,0.7,0.1,0.9,0.2
	c0.1,0.1,0.3,0.3,0.3,0.6s-0.2,0.5-0.6,0.6l0,0C290.1-3.6,290.3-3.4,290.4-3z M289.7-4.3c0-0.2-0.2-0.4-0.6-0.4c-0.2,0-0.3,0-0.3,0
	v0.8h0.3C289.5-3.9,289.7-4,289.7-4.3z M134.3-13c0.1,0.1,0.3,0.2,0.4,0.3c-1.5-1.2-3.2-2.2-5-3c-0.1,0-0.2-0.1-0.3-0.1
	c-0.2-0.1-0.4-0.2-0.6-0.2c-1-0.4-2-0.8-3-1.1l0,0c-0.1,0-0.3-0.1-0.5-0.1c-2.2-0.7-4.5-1-6.8-1c-0.7,0-1.4,0-2,0.1
	c-1.9,0.2-4.5,0.6-7,1.5c-1.2,0.4-5.4,2.4-7.5,4.2c1.3-0.9,3.1-1.8,5.4-1.4c1.7,0.2,4,1.3,5.5,2.5c6.9,5.4,11.5,15,10.3,26.7
	c-0.6,5.5-3.1,11.2-8.1,13.9c-3.6,2-8,2.4-12.6-0.2c-4.7-3.8-5.4-9.8-3-12.5c3.1-3.3,11.6,2,22,3.6c0.5-1.5,0.8-3.1,1-4.9
	c0.4-3.9,0.2-7.7-0.7-11.2C114,0.8,105.9-6.4,99.5-5.8c-4.7,0.4-6.8,6.6-7.3,10.6C92,6.4,92,8,92,9.6c0.1,2.4,0.5,4.7,1.2,7
	c0.8,2.2,1.8,4.3,3.1,6.3c0.5,0.7,1,1.4,1.5,2c0,0,0,0-0.1-0.1l0.1,0.1c1.7,2.1,3.7,4,6,5.6c0,0,0,0,0.1,0c0.3,0.2,0.6,0.4,0.9,0.6
	c0.1,0.1,0.3,0.2,0.4,0.3c0.2,0.1,0.4,0.2,0.6,0.3c0.3,0.2,0.7,0.4,1,0.5c0,0,0.1,0,0.1,0.1c2.8,1.4,5.8,2.2,8.6,2.5
	c0.1,0,0.1,0,0.2,0h0.1l0,0c4.8,0.4,8-0.3,11.6-1.9c8.1-3.6,13.2-12.9,11.8-22.6c-1.7-11.1-8.6-19-16.9-24.6c-1.7-1.2-3.2-1.9-3-2.6
	c0.1-0.6,2.4-0.7,5.5-0.1c5.2,1.2,8.4,4.1,10.7,7.1C137.7-7,139-2.2,137,1.4c1.3,2.8,2.3,5.8,2.8,9.1c0.3,1.8,0.3,3.6,0.2,5.3
	c5.2-5.2,6.7-14,0.1-23C138.5-9.4,136.6-11.3,134.3-13z"/>
</svg>
