<?xml version="1.0" encoding="utf-8"?>
<!-- Generator: Adobe Illustrator 25.2.0, SVG Export Plug-In . SVG Version: 6.00 Build 0)  -->
<svg version="1.1" id="logo_x5F_insights" xmlns="http://www.w3.org/2000/svg" x="0px"
	 y="0px" viewBox="0 0 52.5 53.2" style="enable-background:new 0 0 52.5 53.2;" xml:space="preserve" width="50px" height="50px">
<style type="text/css">
	.insights-st0{fill:#0082B7;}
</style>
<path class="insights-st0" d="M42.3,5.2c0.1,0.1,0.3,0.2,0.4,0.3c-1.5-1.2-3.2-2.2-5-3c-0.1,0-0.2-0.1-0.3-0.1c-0.2-0.1-0.4-0.2-0.6-0.2
	c-1-0.4-2-0.8-3-1.1l0,0c-0.1,0-0.3-0.1-0.5-0.1c-2.2-0.7-4.5-1-6.8-1c-0.7,0-1.4,0-2,0.1c-1.9,0.2-4.5,0.6-7,1.5
	C16.3,2,12.1,4,10,5.8c1.3-0.9,3.1-1.8,5.4-1.4c1.7,0.2,4,1.3,5.5,2.5c6.9,5.4,11.5,15,10.3,26.7c-0.6,5.5-3.1,11.2-8.1,13.9
	c-3.6,2-8,2.4-12.6-0.2c-4.7-3.8-5.4-9.8-3-12.5c3.1-3.3,11.6,2,22,3.6c0.5-1.5,0.8-3.1,1-4.9c0.4-3.9,0.2-7.7-0.7-11.2
	C22,19,13.9,11.8,7.5,12.4C2.8,12.8,0.7,19,0.2,23C0,24.6,0,26.2,0,27.8c0.1,2.4,0.5,4.7,1.2,7C2,37,3,39.1,4.3,41.1
	c0.5,0.7,1,1.4,1.5,2c0,0,0,0-0.1-0.1l0.1,0.1c1.7,2.1,3.7,4,6,5.6c0,0,0,0,0.1,0c0.3,0.2,0.6,0.4,0.9,0.6c0.1,0.1,0.3,0.2,0.4,0.3
	c0.2,0.1,0.4,0.2,0.6,0.3c0.3,0.2,0.7,0.4,1,0.5c0,0,0.1,0,0.1,0.1c2.8,1.4,5.8,2.2,8.6,2.5c0.1,0,0.1,0,0.2,0h0.1l0,0
	c4.8,0.4,8-0.3,11.6-1.9c8.1-3.6,13.2-12.9,11.8-22.6c-1.7-11.1-8.6-19-16.9-24.6c-1.7-1.2-3.2-1.9-3-2.6c0.1-0.6,2.4-0.7,5.5-0.1
	c5.2,1.2,8.4,4.1,10.7,7.1C45.7,11.2,47,16,45,19.6c1.3,2.8,2.3,5.8,2.8,9.1c0.3,1.8,0.3,3.6,0.2,5.3c5.2-5.2,6.7-14,0.1-23
	C46.5,8.8,44.6,6.9,42.3,5.2z"/>
</svg>
