<?xml version="1.0" encoding="utf-8"?>
<!-- Generator: Adobe Illustrator 25.2.0, SVG Export Plug-In . SVG Version: 6.00 Build 0)  -->
<svg version="1.1"
	 id="svg4136" xmlns:cc="http://creativecommons.org/ns#" xmlns:dc="http://purl.org/dc/elements/1.1/" xmlns:inkscape="http://www.inkscape.org/namespaces/inkscape" xmlns:rdf="http://www.w3.org/1999/02/22-rdf-syntax-ns#" xmlns:sodipodi="http://sodipodi.sourceforge.net/DTD/sodipodi-0.dtd" xmlns:svg="http://www.w3.org/2000/svg"
	 xmlns="http://www.w3.org/2000/svg" xmlns:xlink="http://www.w3.org/1999/xlink" x="0px" y="0px" viewBox="0 0 75 75"
	 style="enable-background:new 0 0 75 75;" xml:space="preserve" width="50px" height="50px">
<style type="text/css">
	.ss-st0{clip-path:url(#SVGID_2_);}
	.ss-st1{fill:#F47216;}
	.ss-st2{fill:#DB1D2B;}
</style>
<sodipodi:namedview  bordercolor="#666666" borderopacity="1" fit-margin-bottom="3" fit-margin-left="3" fit-margin-right="3" fit-margin-top="3" gridtolerance="10" guidetolerance="10" id="namedview4138" inkscape:current-layer="g4144" inkscape:cx="207.33846" inkscape:cy="-16.792468" inkscape:pageopacity="0" inkscape:pageshadow="2" inkscape:window-height="1018" inkscape:window-maximized="1" inkscape:window-width="1920" inkscape:window-x="-8" inkscape:window-y="-8" inkscape:zoom="1" objecttolerance="10" pagecolor="#ffffff" showgrid="false">
	</sodipodi:namedview>
<g id="g4144" transform="matrix(1.25,0,0,-1.25,-175.33837,418.5115)" inkscape:groupmode="layer" inkscape:label="sopra-steria-overview">
	<g id="g9060" transform="matrix(1.9216907,0,0,1.9216907,-538.89669,216.3214)">
		<g>
			<g>
				<defs>
					<rect id="SVGID_1_" x="-1565.3" y="-2069.8" width="3566.3" height="5002.7"/>
				</defs>
				<clipPath id="SVGID_2_">
					<use xlink:href="#SVGID_1_"  style="overflow:visible;"/>
				</clipPath>
				<g id="g9062" class="ss-st0">
					<g id="g9298">
						<g id="g9068" transform="translate(463.6973,39.6514)">
							<path id="path9070" inkscape:connector-curvature="0" class="ss-st1" d="M-86.6-1.8c-0.2-0.1-0.4-0.2-0.5-0.3h-0.1h0.1
								c3.7-1,7.3-0.9,8,1.3c0.9,3-4.9,6.2-7.7,7.6c-0.6,0.3-0.8,0.1-0.5-0.3C-85.6,4.4-83.2,0.4-86.6-1.8"/>
						</g>
						<g id="g9118" transform="translate(463.0977,39.2803)">
							<path id="path9120" inkscape:connector-curvature="0" class="ss-st2" d="M-86.7-1.9c0,0-4.6-2.9-12.8-2.9c-3.2,0-5.9,0.5-7,1.5
								c-1.2,1.1-1.8,3.2-1.8,4.9c0,1.5,0.6,2.9,2,2.9C-102.8,4.6-92.1-0.8-86.7-1.9"/>
						</g>
						<g id="g9122" transform="translate(448.0791,55.7051)">
							<path id="path9124" inkscape:connector-curvature="0" class="ss-st1" d="M-87.1-1.4c0.2,0.1,0.4,0.2,0.5,0.3h0.1h-0.1
								c-3.7,1-7.3,0.9-8-1.3c-0.9-3,4.9-6.2,7.7-7.6c0.6-0.3,0.8-0.1,0.5,0.3C-88.1-7.7-90.6-3.8-87.1-1.4"/>
						</g>
						<g id="g9126" transform="translate(448.6787,56.0752)">
							<path id="path9128" inkscape:connector-curvature="0" class="ss-st2" d="M-87-1.4c0,0,4.6,2.9,12.8,2.9c3.2,0,5.9-0.5,7-1.5
								c1.2-1.1,1.8-3.2,1.8-4.9c0-1.5-0.6-2.9-2-2.9C-70.8-8-81.6-2.4-87-1.4"/>
						</g>
					</g>
				</g>
			</g>
		</g>
	</g>
</g>
</svg>
